<svg id="Livello_1" data-name="Livello 1" xmlns="http://www.w3.org/2000/svg" viewBox="0 0 1781.21 539.1"><defs><style>.cls-1{fill:#1d1d1b;}</style></defs><path class="cls-1" d="M227.13,285.61v66.62c0,16.74,26,23.43,57.95,29.21v.31H141.34v-.31c31.94-5.78,44.26-12.47,44.26-26.16v-160c0-13.69-12.32-20.39-44.26-26.17v-.3H284.17c94,0,126.4,23.73,126.4,58.41s-32.39,58.42-126.4,58.42Zm44.26-113.18H227.13V282h44.26c66.17,0,93.55-20.69,93.55-54.77S337.56,172.43,271.39,172.43Z"/><path class="cls-1" d="M986.38,346.45c19.17,18.26,36.51,28.91,52.48,35v.31H952.62v-.31c7.75-7.91,3.19-17.34-7.3-27.38l-77.58-74.54H819.82v72.71c0,16.74,24.19,23.43,53.39,29.21v.31H734v-.31C766,375.66,778.3,369,778.3,355.28v-160c0-13.69-12.33-20.39-44.27-26.17v-.3H869.11c98.11,0,134.16,21.3,134.16,54.46,0,27.68-25.1,48.07-89.44,54.46Zm-171.3-174V275.87h49.29c61.6,0,88.53-21,88.53-52.63S926,172.43,864.37,172.43Z"/><path class="cls-1" d="M1028.89,169.06h260.57v82.15H1289c-27.38-68.76-40.15-78.5-83.5-78.5h-25.56V355.56c0,13.69,15.51,20.08,53.39,26.16V382H1085v-.31c37.88-6.38,53.39-12.47,53.39-26.16V172.71h-25.55c-43.35,0-55.68,9.74-83.51,78.5h-.46Z"/><path class="cls-1" d="M598.71,382.17C509.65,385.32,463.39,334,461,274.42c-2.38-59.87,39.68-114.36,128.74-117.5,88.68-3.13,135.68,48.21,138.05,108.08C730.19,324.54,687.4,379,598.71,382.17Zm-7.62-191.84C502.77,193.45,464,228.6,465.81,274.25c1.8,45.31,43.25,77.64,131.57,74.52,88-3.11,127.09-38.28,125.29-83.59C720.86,219.53,679,187.22,591.09,190.33Z"/><path class="cls-1" d="M469.27,312.83s13.45,35.25-66.56-41.4c0,0,59.25,103.31,69.73,110.88H589.86C577.46,380,499.82,354.2,469.27,312.83Z"/><path class="cls-1" d="M1314.76,265c2.37-59.87,49.37-111.21,138-108.08,89.06,3.14,131.12,57.63,128.74,117.5-2.36,59.53-48.62,110.9-137.68,107.75C1355.18,379,1312.39,324.54,1314.76,265Zm5.15.18c-1.8,45.31,37.34,80.48,125.29,83.59,88.32,3.12,129.77-29.21,131.57-74.52,1.81-45.65-37-80.8-125.28-83.92C1363.54,187.22,1321.72,219.53,1319.91,265.18Z"/><path class="cls-1" d="M1573.31,312.83s-13.45,35.25,66.56-41.4c0,0-59.25,103.31-69.73,110.88H1452.72C1465.12,380,1542.76,354.2,1573.31,312.83Z"/></svg>